<?xml version="1.0" standalone="no"?>
<!DOCTYPE svg PUBLIC "-//W3C//DTD SVG 20010904//EN"
 "http://www.w3.org/TR/2001/REC-SVG-20010904/DTD/svg10.dtd">
<svg version="1.0" xmlns="http://www.w3.org/2000/svg"
 width="2000.000000pt" height="1500.000000pt" viewBox="0 0 2000.000000 1500.000000"
 preserveAspectRatio="xMidYMid meet">

<g transform="translate(0.000000,1500.000000) scale(0.100000,-0.100000)"
fill="#000000" stroke="none">
<path d="M0 7500 l0 -7500 10000 0 10000 0 0 7500 0 7500 -10000 0 -10000 0 0
-7500z m14940 3305 l0 -1666 -122 3 -123 3 -3 1533 -2 1532 -4690 0 -4690 0
-2 -1532 -3 -1533 -122 -3 -123 -3 0 1666 0 1665 4940 0 4940 0 0 -1665z
m-8530 -1909 c0 -3 870 -2523 930 -2694 l30 -83 -142 3 -141 3 -131 383 -131
382 -614 -2 -614 -3 -133 -380 -132 -380 -136 -3 c-111 -2 -136 0 -136 11 0
11 576 1649 947 2695 l26 72 188 0 c104 0 189 -2 189 -4z m2548 -677 c108 -27
186 -73 273 -159 55 -55 85 -95 112 -150 75 -153 71 -104 75 -992 l3 -798
-131 0 -130 0 0 743 c0 805 -1 810 -56 919 -105 208 -392 278 -643 158 -67
-32 -101 -57 -166 -123 -92 -92 -142 -177 -178 -306 -21 -74 -21 -96 -25 -733
l-3 -658 -124 0 -125 0 0 1045 0 1045 125 0 125 0 0 -171 0 -171 50 75 c114
171 281 270 497 297 91 11 231 2 321 -21z m1812 21 c130 -14 200 -33 299 -81
142 -70 245 -192 302 -356 46 -134 49 -193 49 -960 l0 -723 -125 0 -125 0 0
117 0 118 -45 -52 c-115 -132 -302 -202 -542 -203 -215 0 -369 56 -498 184
-148 146 -205 346 -160 560 42 200 188 354 414 436 140 51 227 62 545 67 l289
5 -6 122 c-8 143 -26 224 -67 306 -78 154 -212 220 -451 220 -191 0 -367 -45
-513 -130 -38 -22 -70 -40 -72 -40 -2 0 -4 60 -4 134 l0 134 33 20 c98 57 272
108 418 121 134 12 153 12 259 1z m2191 -17 c6 -6 8 -63 7 -129 -2 -90 -6
-118 -16 -116 -7 1 -45 6 -85 10 -158 16 -261 -20 -367 -128 -72 -74 -118
-144 -160 -249 -59 -144 -60 -160 -60 -856 l0 -635 -130 0 -130 0 0 1045 0
1045 130 0 130 0 0 -167 0 -167 36 59 c99 166 225 255 409 291 74 14 221 12
236 -3z m1278 7 c188 -24 319 -88 451 -220 117 -117 173 -216 222 -398 18 -64
22 -114 26 -295 2 -120 1 -229 -2 -242 l-6 -25 -736 0 -737 0 7 -59 c22 -193
111 -367 244 -476 166 -138 413 -197 692 -166 143 16 219 35 328 86 l92 44 0
-129 0 -128 -72 -30 c-166 -69 -344 -97 -563 -89 -305 11 -522 103 -716 303
-155 160 -237 338 -270 582 -16 117 -5 370 20 487 112 522 513 818 1020 755z
m-8931 -3907 l2 -1533 4690 0 4690 0 2 1533 3 1532 123 3 122 3 0 -1666 0
-1665 -4940 0 -4940 0 0 1665 0 1666 123 -3 122 -3 3 -1532z"/>
<path d="M6186 8583 c-16 -49 -136 -396 -267 -773 -131 -376 -237 -686 -235
-687 2 -2 241 -2 532 -1 l530 3 -261 772 c-143 425 -262 773 -265 773 -3 0
-19 -39 -34 -87z"/>
<path d="M10600 7104 c-140 -22 -249 -74 -325 -156 -96 -104 -118 -238 -64
-384 31 -81 112 -162 194 -193 211 -80 485 -31 626 111 111 111 139 203 139
461 l0 167 -272 -1 c-150 -1 -284 -3 -298 -5z"/>
<path d="M13960 7985 c-172 -39 -322 -160 -404 -327 -48 -97 -80 -204 -92
-307 l-7 -61 618 0 617 0 -6 108 c-13 203 -57 321 -162 431 -67 72 -141 118
-234 146 -78 23 -249 28 -330 10z"/>
</g>
</svg>
